<svg width="27" height="27" viewBox="0 0 27 27" fill="none" xmlns="http://www.w3.org/2000/svg">
<path d="M23.4259 6.94933C23.3073 7.00594 23.2011 7.08534 23.1133 7.18302C23.0254 7.28069 22.9577 7.39471 22.9139 7.51857C22.8701 7.64243 22.8512 7.7737 22.8582 7.90487C22.8652 8.03605 22.8979 8.16457 22.9546 8.28308C24.1284 10.7319 24.3559 13.5281 23.5933 16.1345C22.8308 18.7409 21.132 20.9735 18.8233 22.4035C16.5147 23.8335 13.7591 24.3599 11.0859 23.8817C8.41272 23.4034 6.01054 21.9542 4.34091 19.8125C2.67128 17.6708 1.85197 14.9876 2.04038 12.2785C2.2288 9.56946 3.41165 7.02556 5.36169 5.13558C7.31172 3.24561 9.89138 2.14289 12.605 2.0393C15.3187 1.9357 17.9749 2.83853 20.0634 4.57433L17.2171 7.42058C15.7997 6.36451 14.0352 5.88376 12.278 6.07487C10.5208 6.26597 8.90095 7.11478 7.7437 8.45085C6.58644 9.78692 5.97749 11.5113 6.0391 13.2778C6.10071 15.0443 6.82833 16.7221 8.07586 17.9743C9.07893 18.977 10.3629 19.6514 11.7578 19.9081C13.1527 20.1648 14.5926 19.9917 15.8869 19.4117C17.1813 18.8318 18.2689 17.8724 19.0058 16.6605C19.7426 15.4487 20.094 14.0416 20.0134 12.6256C20.006 12.4943 19.9728 12.3657 19.9157 12.2472C19.8586 12.1287 19.7788 12.0226 19.6807 11.9349C19.5826 11.8473 19.4682 11.7799 19.3441 11.7364C19.2199 11.693 19.0884 11.6744 18.9571 11.6818C18.8258 11.6892 18.6972 11.7224 18.5787 11.7795C18.4602 11.8366 18.3541 11.9164 18.2665 12.0145C18.1788 12.1126 18.1114 12.227 18.068 12.3511C18.0245 12.4753 18.006 12.6068 18.0134 12.7381C18.0669 13.6645 17.8616 14.5875 17.4203 15.4039C16.9791 16.2202 16.3194 16.8977 15.5151 17.3604C14.7108 17.8232 13.7935 18.053 12.866 18.0241C11.9385 17.9952 11.0373 17.7087 10.2634 17.1968L13.2571 14.2031L17.9759 9.49058L25.7334 1.74058C25.8263 1.64767 25.9 1.53737 25.9503 1.41597C26.0005 1.29458 26.0264 1.16447 26.0264 1.03308C26.0264 0.901683 26.0005 0.771574 25.9503 0.650181C25.9 0.528788 25.8263 0.418487 25.7334 0.325577C25.6404 0.232667 25.5301 0.158967 25.4088 0.108684C25.2874 0.0584014 25.1573 0.0325213 25.0259 0.0325213C24.8945 0.0325213 24.7644 0.0584014 24.643 0.108684C24.5216 0.158967 24.4113 0.232667 24.3184 0.325577L21.4846 3.15058C18.9333 0.952835 15.6288 -0.169204 12.2668 0.0207088C8.90483 0.210622 5.74769 1.69767 3.46016 4.16875C1.17262 6.63983 -0.0668301 9.90213 0.00278119 13.2688C0.0723925 16.6354 1.44563 19.8437 3.83336 22.2181C6.00129 24.3899 8.86763 25.7248 11.9251 25.9866C14.9826 26.2483 18.0341 25.42 20.5397 23.6483C23.0452 21.8766 24.8432 19.2756 25.6155 16.3057C26.3879 13.3358 26.0847 10.1884 24.7596 7.42058C24.703 7.30204 24.6236 7.19581 24.5259 7.10797C24.4282 7.02013 24.3142 6.95239 24.1904 6.90863C24.0665 6.86487 23.9352 6.84594 23.8041 6.85292C23.6729 6.8599 23.5444 6.89266 23.4259 6.94933Z" fill="#FF9A00"/>
</svg>
